<svg width="183" height="193" viewBox="0 0 183 193" fill="none" xmlns="http://www.w3.org/2000/svg">
<g filter="url(#filter0_d_1262_5433)">
<path d="M179 46.25C179 71.7871 159.421 92.4901 135.267 92.5H163.834C172.21 92.5 179 99.678 179 108.533V168.967C179 177.822 172.21 185 163.834 185H135.25C111.088 185 91.5 164.293 91.5 138.75V168.967C91.5 177.822 84.71 185 76.3342 185H19.1658C10.79 185 4 177.822 4 168.967V138.75C4 113.207 23.5876 92.5 47.75 92.5H81.2322C87.1446 92.5 91.9375 87.4331 91.9375 81.1829V16.0326C91.9375 7.17805 98.7274 0 107.103 0H135.25C159.412 0 179 20.7068 179 46.25Z" fill="#EDFE8E"/>
</g>
<defs>
<filter id="filter0_d_1262_5433" x="0" y="0" width="183" height="193" filterUnits="userSpaceOnUse" color-interpolation-filters="sRGB">
<feFlood flood-opacity="0" result="BackgroundImageFix"/>
<feColorMatrix in="SourceAlpha" type="matrix" values="0 0 0 0 0 0 0 0 0 0 0 0 0 0 0 0 0 0 127 0" result="hardAlpha"/>
<feOffset dy="4"/>
<feGaussianBlur stdDeviation="2"/>
<feComposite in2="hardAlpha" operator="out"/>
<feColorMatrix type="matrix" values="0 0 0 0 0 0 0 0 0 0 0 0 0 0 0 0 0 0 0.25 0"/>
<feBlend mode="normal" in2="BackgroundImageFix" result="effect1_dropShadow_1262_5433"/>
<feBlend mode="normal" in="SourceGraphic" in2="effect1_dropShadow_1262_5433" result="shape"/>
</filter>
</defs>
</svg>
