<svg width="42" height="42" viewBox="0 0 42 42" fill="none" xmlns="http://www.w3.org/2000/svg">
<path d="M10.3337 32.9993C9.60033 32.9993 8.97255 32.7382 8.45033 32.216C7.9281 31.6938 7.66699 31.066 7.66699 30.3327V14.3327C7.66699 13.5993 7.9281 12.9716 8.45033 12.4493C8.97255 11.9271 9.60033 11.666 10.3337 11.666H23.8003C23.7114 12.1105 23.667 12.5549 23.667 12.9993C23.667 13.4438 23.7114 13.8882 23.8003 14.3327H10.3337L21.0003 20.9993L25.867 17.966C26.1781 18.2549 26.517 18.5049 26.8837 18.716C27.2503 18.9271 27.6337 19.1105 28.0337 19.266L21.0003 23.666L10.3337 16.9993V30.3327H31.667V19.5327C32.1781 19.4216 32.6559 19.266 33.1003 19.066C33.5448 18.866 33.9559 18.6216 34.3337 18.3327V30.3327C34.3337 31.066 34.0726 31.6938 33.5503 32.216C33.0281 32.7382 32.4003 32.9993 31.667 32.9993H10.3337Z" fill="#F6F47C"/>
<path d="M26.333 13C26.333 14.1111 26.7219 15.0556 27.4997 15.8333C28.2775 16.6111 29.2219 17 30.333 17C31.4441 17 32.3886 16.6111 33.1663 15.8333C33.9441 15.0556 34.333 14.1111 34.333 13C34.333 11.8889 33.9441 10.9444 33.1663 10.1667C32.3886 9.38889 31.4441 9 30.333 9C29.2219 9 28.2775 9.38889 27.4997 10.1667C26.7219 10.9444 26.333 11.8889 26.333 13Z" fill="white"/>
</svg>
