<svg width="42" height="42" viewBox="0 0 42 42" fill="none" xmlns="http://www.w3.org/2000/svg">
<mask id="mask0_478_3188" style="mask-type:alpha" maskUnits="userSpaceOnUse" x="5" y="5" width="32" height="32">
<rect x="5" y="5" width="32" height="32" fill="#D9D9D9"/>
</mask>
<g mask="url(#mask0_478_3188)">
<path d="M10.333 30.3337V27.667H12.9997V18.3337C12.9997 16.4892 13.5552 14.8503 14.6663 13.417C15.7775 11.9837 17.2219 11.0448 18.9997 10.6003V9.66699C18.9997 9.11144 19.1941 8.63921 19.583 8.25033C19.9719 7.86144 20.4441 7.66699 20.9997 7.66699C21.5552 7.66699 22.0275 7.86144 22.4163 8.25033C22.8052 8.63921 22.9997 9.11144 22.9997 9.66699V10.6003C24.7775 11.0448 26.2219 11.9837 27.333 13.417C28.4441 14.8503 28.9997 16.4892 28.9997 18.3337V27.667H31.6663V30.3337H10.333ZM20.9997 34.3337C20.2663 34.3337 19.6386 34.0725 19.1163 33.5503C18.5941 33.0281 18.333 32.4003 18.333 31.667H23.6663C23.6663 32.4003 23.4052 33.0281 22.883 33.5503C22.3608 34.0725 21.733 34.3337 20.9997 34.3337ZM15.6663 27.667H26.333V18.3337C26.333 16.867 25.8108 15.6114 24.7663 14.567C23.7219 13.5225 22.4663 13.0003 20.9997 13.0003C19.533 13.0003 18.2775 13.5225 17.233 14.567C16.1886 15.6114 15.6663 16.867 15.6663 18.3337V27.667Z" fill="#F6F47C"/>
<path d="M23 14C23 15.1111 23.3889 16.0556 24.1667 16.8333C24.9444 17.6111 25.8889 18 27 18C28.1111 18 29.0556 17.6111 29.8333 16.8333C30.6111 16.0556 31 15.1111 31 14C31 12.8889 30.6111 11.9444 29.8333 11.1667C29.0556 10.3889 28.1111 10 27 10C25.8889 10 24.9444 10.3889 24.1667 11.1667C23.3889 11.9444 23 12.8889 23 14Z" fill="white"/>
</g>
</svg>
