<svg width="126" height="126" viewBox="0 0 126 126" fill="none" xmlns="http://www.w3.org/2000/svg">
<rect x="56" y="42" width="14" height="42" rx="7" fill="black"/>
<rect x="84" y="56" width="14" height="42" rx="7" transform="rotate(90 84 56)" fill="black"/>
<rect x="56" y="70" width="14" height="56" rx="7" fill="black"/>
<rect x="84" y="98" width="14" height="42" rx="7" transform="rotate(90 84 98)" fill="black"/>
<rect x="56" y="56" width="14" height="56" rx="7" transform="rotate(90 56 56)" fill="black"/>
<rect x="28" y="84" width="14" height="42" rx="7" transform="rotate(-180 28 84)" fill="black"/>
<rect x="56" width="14" height="56" rx="7" fill="black"/>
<rect x="84" y="14" width="14" height="42" rx="7" transform="rotate(90 84 14)" fill="black"/>
<rect x="126" y="56" width="14" height="56" rx="7" transform="rotate(90 126 56)" fill="black"/>
<rect x="112" y="84" width="14" height="42" rx="7" transform="rotate(-180 112 84)" fill="black"/>
</svg>
