<svg width="16" height="16" viewBox="0 0 16 16" fill="none" xmlns="http://www.w3.org/2000/svg">
<mask id="mask0_490_3544" style="mask-type:alpha" maskUnits="userSpaceOnUse" x="0" y="0" width="16" height="16">
<rect width="16" height="16" fill="#D9D9D9"/>
</mask>
<g mask="url(#mask0_490_3544)">
<path d="M8.94175 7.60801C9.20286 7.3469 9.33342 7.03301 9.33342 6.66634C9.33342 6.29967 9.20286 5.98579 8.94175 5.72467C8.68064 5.46356 8.36675 5.33301 8.00008 5.33301C7.63341 5.33301 7.31953 5.46356 7.05841 5.72467C6.7973 5.98579 6.66675 6.29967 6.66675 6.66634C6.66675 7.03301 6.7973 7.3469 7.05841 7.60801C7.31953 7.86912 7.63341 7.99967 8.00008 7.99967C8.36675 7.99967 8.68064 7.86912 8.94175 7.60801ZM8.00008 12.8997C9.35564 11.6552 10.3612 10.5247 11.0167 9.50801C11.6723 8.49134 12.0001 7.58856 12.0001 6.79967C12.0001 5.58856 11.614 4.5969 10.8417 3.82467C10.0695 3.05245 9.1223 2.66634 8.00008 2.66634C6.87786 2.66634 5.93064 3.05245 5.15841 3.82467C4.38619 4.5969 4.00008 5.58856 4.00008 6.79967C4.00008 7.58856 4.32786 8.49134 4.98341 9.50801C5.63897 10.5247 6.64453 11.6552 8.00008 12.8997ZM8.00008 14.6663C6.21119 13.1441 4.87508 11.7302 3.99175 10.4247C3.10841 9.11912 2.66675 7.91079 2.66675 6.79967C2.66675 5.13301 3.20286 3.80523 4.27508 2.81634C5.3473 1.82745 6.58897 1.33301 8.00008 1.33301C9.41119 1.33301 10.6529 1.82745 11.7251 2.81634C12.7973 3.80523 13.3334 5.13301 13.3334 6.79967C13.3334 7.91079 12.8917 9.11912 12.0084 10.4247C11.1251 11.7302 9.78897 13.1441 8.00008 14.6663Z" fill="white" fill-opacity="0.84"/>
</g>
</svg>
