<svg width="193" height="61" viewBox="0 0 193 61" fill="none" xmlns="http://www.w3.org/2000/svg">
<path d="M176.495 54.5254C167.54 54.5254 160.28 47.2655 160.28 38.3099C160.28 29.3544 167.54 22.0944 176.495 22.0944L189.213 22.0944C191.145 22.0944 192.71 23.66 192.71 25.5913L192.71 51.0286C192.71 52.9598 191.145 54.5254 189.213 54.5254L176.495 54.5254Z" fill="#EDFE8E"/>
<path d="M132.33 27.3906C126.836 27.3906 122.381 22.9361 122.381 17.4412C122.381 11.9463 126.836 7.49182 132.33 7.49182L154.151 7.49182C159.646 7.49182 164.101 11.9463 164.101 17.4412C164.101 22.9361 159.646 27.3906 154.151 27.3906L132.33 27.3906Z" fill="#EDFE8E"/>
<path d="M144.767 28.5215C138.023 28.5215 132.557 33.9884 132.557 40.7321L132.557 50.3423C132.557 52.6527 134.429 54.5256 136.74 54.5256L149.742 54.5256C152.052 54.5256 153.925 52.6527 153.925 50.3423L153.925 28.5215L144.767 28.5215Z" fill="#EDFE8E"/>
<path d="M104.471 12.4668C110.3 12.4668 115.035 17.1338 115.15 22.9346C121.574 25.091 126.202 31.1604 126.202 38.3105C126.202 47.2658 118.941 54.5254 109.986 54.5254C101.031 54.5252 93.7714 47.2657 93.7712 38.3105C93.7712 38.0718 93.7776 37.8339 93.7878 37.5977V23.1514C93.7878 17.2507 98.5707 12.4669 104.471 12.4668Z" fill="#EDFE8E"/>
<path d="M71.0815 54.5254C62.1259 54.5254 54.866 47.2655 54.866 38.3099C54.866 29.3544 62.1259 22.0944 71.0815 22.0944L83.7997 22.0944C85.731 22.0944 87.2966 23.66 87.2966 25.5913L87.2966 51.0286C87.2966 52.9598 85.731 54.5254 83.7997 54.5254L71.0815 54.5254Z" fill="#EDFE8E"/>
<path d="M48.3912 18.2324C48.3912 24.9121 42.9773 30.3274 36.2982 30.33H44.1976C46.5137 30.33 48.3912 32.2076 48.3912 34.5237V50.3316C48.3912 52.6477 46.5137 54.5253 44.1976 54.5253H36.2934C29.6121 54.5253 24.1956 49.1089 24.1956 42.4276V50.3316C24.1956 52.6477 22.3181 54.5253 20.002 54.5253H4.1937C1.8776 54.5253 4.57764e-05 52.6477 4.57764e-05 50.3316V42.4276C4.54843e-05 35.7464 5.41642 30.33 12.0978 30.33H21.3564C22.9913 30.33 24.3166 29.0047 24.3166 27.3698V10.3284C24.3166 8.01233 26.1942 6.13477 28.5103 6.13477H36.2934C42.9749 6.13477 48.3912 11.5511 48.3912 18.2324Z" fill="#EDFE8E"/>
</svg>
