<svg width="193" height="61" viewBox="0 0 193 61" fill="none" xmlns="http://www.w3.org/2000/svg">
<path d="M176.495 54.5254C167.54 54.5254 160.28 47.2655 160.28 38.3099C160.28 29.3544 167.54 22.0944 176.495 22.0944L189.213 22.0944C191.145 22.0944 192.71 23.66 192.71 25.5913L192.71 51.0286C192.71 52.9598 191.145 54.5254 189.213 54.5254L176.495 54.5254Z" fill="white" fill-opacity="0.66"/>
<path d="M132.33 27.3906C126.836 27.3906 122.381 22.9361 122.381 17.4412C122.381 11.9463 126.836 7.49182 132.331 7.49182L154.151 7.49182C159.646 7.49182 164.101 11.9463 164.101 17.4412C164.101 22.9361 159.646 27.3906 154.151 27.3906L132.33 27.3906Z" fill="white" fill-opacity="0.66"/>
<path d="M144.767 28.5215C138.024 28.5215 132.557 33.9884 132.557 40.7321L132.557 50.3423C132.557 52.6527 134.43 54.5256 136.74 54.5256L149.742 54.5256C152.052 54.5256 153.925 52.6527 153.925 50.3423L153.925 28.5215L144.767 28.5215Z" fill="white" fill-opacity="0.66"/>
<path d="M104.473 12.4668C110.301 12.4668 115.036 17.1337 115.151 22.9346C121.574 25.0912 126.202 31.16 126.202 38.3096C126.202 47.265 118.942 54.5254 109.986 54.5254C101.031 54.5252 93.7715 47.2649 93.7715 38.3096C93.7715 38.0648 93.7773 37.8213 93.7881 37.5791V23.1504C93.7883 17.2499 98.5721 12.4669 104.473 12.4668Z" fill="white" fill-opacity="0.66"/>
<path d="M71.0817 54.5254C62.1261 54.5254 54.8662 47.2655 54.8662 38.3099C54.8662 29.3544 62.1261 22.0944 71.0817 22.0944L83.7999 22.0944C85.7312 22.0944 87.2968 23.66 87.2968 25.5913L87.2968 51.0286C87.2968 52.9598 85.7312 54.5254 83.7999 54.5254L71.0817 54.5254Z" fill="white" fill-opacity="0.66"/>
<path d="M48.3912 18.2324C48.3912 24.9121 42.9773 30.3274 36.2981 30.33H44.1975C46.5136 30.33 48.3912 32.2076 48.3912 34.5237V50.3316C48.3912 52.6477 46.5136 54.5253 44.1975 54.5253H36.2934C29.612 54.5253 24.1956 49.1089 24.1956 42.4276V50.3316C24.1956 52.6477 22.318 54.5253 20.0019 54.5253H4.19365C1.87756 54.5253 0 52.6477 0 50.3316V42.4276C-2.92055e-07 35.7464 5.41638 30.33 12.0978 30.33H21.3563C22.9912 30.33 24.3166 29.0047 24.3166 27.3698V10.3284C24.3166 8.01233 26.1941 6.13477 28.5102 6.13477H36.2934C42.9748 6.13477 48.3912 11.5511 48.3912 18.2324Z" fill="white" fill-opacity="0.66"/>
</svg>
