<svg width="42" height="42" viewBox="0 0 42 42" fill="none" xmlns="http://www.w3.org/2000/svg">
<g clip-path="url(#clip0_982_9854)">
<rect width="42" height="42.0003" fill="url(#paint0_linear_982_9854)"/>
<g filter="url(#filter0_d_982_9854)">
<path d="M-0.324048 30.8855L1.0665 29.8908C2.67575 28.7396 3.25838 26.6183 2.46293 24.8066L1.52972 22.6812C1.3806 22.3416 1.51512 21.9437 1.83315 21.7528C2.94946 21.0826 5.40469 19.4677 6.35627 17.7148C7.4996 15.6085 7.07856 12.1859 6.6985 10.2338C6.62879 9.87572 7.12028 9.62331 7.35961 9.89857C10.1402 13.0966 15.3841 11.7034 16.2326 7.55133C16.3007 7.21812 16.7611 7.17619 16.8861 7.49247C18.4874 11.543 24.0901 11.8819 26.1663 8.05298L26.3973 7.62689C26.52 7.4007 26.8634 7.48782 26.8634 7.74512C26.8634 11.186 31.1366 12.7787 33.3887 10.1772L33.8249 9.67335C33.8259 9.6722 33.8278 9.67302 33.8277 9.67452L33.5442 12.3827C33.2021 15.6506 36.3302 18.1929 39.4592 17.1899C39.5376 17.1648 39.6135 17.2345 39.5951 17.3148L38.6315 21.5105C38.0367 24.1007 38.963 26.804 41.0214 28.4851L41.4252 28.8148" stroke="black" stroke-width="0.561841" stroke-linecap="round"/>
</g>
<circle cx="3.68501" cy="3.68501" r="4.06347" transform="matrix(-1 0 0 1 16.4902 21.2793)" fill="white"/>
<circle cx="3.68501" cy="3.68501" r="4.06347" transform="matrix(-1 0 0 1 16.4902 21.2793)" fill="black" fill-opacity="0.06"/>
<circle cx="3.68501" cy="3.68501" r="4.06347" transform="matrix(-1 0 0 1 16.4902 21.2793)" stroke="black" stroke-width="0.756908"/>
<path d="M14.2578 22.1348C12.7789 22.1348 11.5549 23.3322 11.5547 24.8057C11.5547 26.2794 12.7789 27.4795 14.2578 27.4795C15.7283 27.4793 16.8652 26.2876 16.8652 24.8057C16.8651 23.324 15.7283 22.1349 14.2578 22.1348Z" fill="url(#paint1_linear_982_9854)"/>
<path d="M14.2578 22.1348C12.7789 22.1348 11.5549 23.3322 11.5547 24.8057C11.5547 26.2794 12.7789 27.4795 14.2578 27.4795C15.7283 27.4793 16.8652 26.2876 16.8652 24.8057C16.8651 23.324 15.7283 22.1349 14.2578 22.1348Z" fill="url(#paint2_radial_982_9854)" fill-opacity="0.2"/>
<path d="M14.2578 22.1348C12.7789 22.1348 11.5549 23.3322 11.5547 24.8057C11.5547 26.2794 12.7789 27.4795 14.2578 27.4795C15.7283 27.4793 16.8652 26.2876 16.8652 24.8057C16.8651 23.324 15.7283 22.1349 14.2578 22.1348Z" stroke="black" stroke-width="0.378454"/>
<path d="M12.7089 24.4113C12.7784 23.6193 11.9442 23.4956 11.8148 24.2801C11.768 24.5644 11.783 24.8892 11.8716 25.2199C12.1049 26.0905 12.7596 26.6715 13.334 26.5176C13.6302 26.2362 12.9878 26.1185 12.7545 25.2479C12.6794 24.9676 12.6855 24.6775 12.7089 24.4113Z" fill="white"/>
<path d="M14.6755 26.515C14.3652 26.5982 14.3255 26.9797 14.6465 26.9933C14.6845 26.9949 14.7233 26.9908 14.762 26.9805C14.966 26.9258 15.0872 26.7164 15.0326 26.5127C14.9555 26.4016 14.8796 26.4604 14.6755 26.515Z" fill="white"/>
<path d="M13.7973 26.5505C13.5804 26.5505 13.4869 26.7929 13.6927 26.8612C13.7178 26.8695 13.7446 26.874 13.7724 26.874C13.9144 26.874 14.0295 26.7569 14.0295 26.6124C13.9988 26.5251 13.9393 26.5505 13.7973 26.5505Z" fill="white"/>
<path d="M10.5657 29.629L10.9784 29.2402C12.945 27.3875 16.0006 27.3421 18.0214 29.1355L10.5657 29.629Z" fill="url(#paint3_linear_982_9854)"/>
<path d="M18.0956 28.8601C16.0748 27.0667 13.0192 27.1121 11.0526 28.9648L10.6399 29.3536" stroke="black" stroke-width="0.537674" stroke-linecap="round"/>
<path d="M10.5657 29.629L10.9784 29.2402C12.945 27.3875 16.0006 27.3421 18.0214 29.1355L10.5657 29.629Z" fill="url(#paint4_linear_982_9854)"/>
<path d="M18.0956 28.8601C16.0748 27.0667 13.0192 27.1121 11.0526 28.9648L10.6399 29.3536" stroke="black" stroke-width="0.537674" stroke-linecap="round"/>
<path d="M7.82422 19.6367C8.56004 18.4925 10.7026 16.374 13.3865 17.0536" stroke="black" stroke-width="0.719322" stroke-linecap="round"/>
<path d="M33.8691 20.1016C31.8356 18.1229 29.6001 17.8423 27.3521 19.548" stroke="black" stroke-width="0.719322" stroke-linecap="round"/>
<path d="M15.6406 30.7617C15.7199 31.8108 18.4489 35.8914 22.5278 35.8914C26.6375 35.8914 29.51 32.2341 29.51 29.5742" stroke="black" stroke-width="0.569972" stroke-linecap="round"/>
<g filter="url(#filter1_f_982_9854)">
<path d="M27.4776 27.7077L27.5422 27.7862C28.6159 29.0909 30.3469 29.6577 31.9844 29.2408L27.4776 27.7077Z" fill="#FDF74E"/>
</g>
<path d="M31.9844 29.2407C30.4451 30.0112 28.5722 29.4794 27.6675 28.0149L27.4776 27.7076" stroke="black" stroke-width="0.537392" stroke-linecap="round"/>
<path d="M32.9648 22.5512C31.9253 21.7052 28.0251 21.2418 26.4102 24.691C27.7317 23.928 31.4627 23.1769 33.5348 25.3266" stroke="black" stroke-width="0.569972" stroke-linecap="round" stroke-linejoin="round"/>
</g>
<defs>
<filter id="filter0_d_982_9854" x="-1.9557" y="6.77097" width="45.0125" height="26.8714" filterUnits="userSpaceOnUse" color-interpolation-filters="sRGB">
<feFlood flood-opacity="0" result="BackgroundImageFix"/>
<feColorMatrix in="SourceAlpha" type="matrix" values="0 0 0 0 0 0 0 0 0 0 0 0 0 0 0 0 0 0 127 0" result="hardAlpha"/>
<feOffset dy="1.1256"/>
<feGaussianBlur stdDeviation="0.675358"/>
<feComposite in2="hardAlpha" operator="out"/>
<feColorMatrix type="matrix" values="0 0 0 0 0.952941 0 0 0 0 0.52549 0 0 0 0 0.141176 0 0 0 1 0"/>
<feBlend mode="normal" in2="BackgroundImageFix" result="effect1_dropShadow_982_9854"/>
<feBlend mode="normal" in="SourceGraphic" in2="effect1_dropShadow_982_9854" result="shape"/>
</filter>
<filter id="filter1_f_982_9854" x="27.0977" y="27.327" width="5.26668" height="2.42793" filterUnits="userSpaceOnUse" color-interpolation-filters="sRGB">
<feFlood flood-opacity="0" result="BackgroundImageFix"/>
<feBlend mode="normal" in="SourceGraphic" in2="BackgroundImageFix" result="shape"/>
<feGaussianBlur stdDeviation="0.189991" result="effect1_foregroundBlur_982_9854"/>
</filter>
<linearGradient id="paint0_linear_982_9854" x1="21" y1="41.988" x2="21" y2="0" gradientUnits="userSpaceOnUse">
<stop stop-color="#EDFE8E"/>
<stop offset="1" stop-color="#FDF74E"/>
</linearGradient>
<linearGradient id="paint1_linear_982_9854" x1="14.2575" y1="21.9437" x2="14.2575" y2="27.6683" gradientUnits="userSpaceOnUse">
<stop/>
<stop offset="1" stop-color="#282828"/>
</linearGradient>
<radialGradient id="paint2_radial_982_9854" cx="0" cy="0" r="1" gradientUnits="userSpaceOnUse" gradientTransform="translate(13.1126 25.5332) rotate(145.85) scale(2.67347)">
<stop offset="0.9999" stop-color="white"/>
<stop offset="1" stop-color="white" stop-opacity="0"/>
</radialGradient>
<linearGradient id="paint3_linear_982_9854" x1="15.7557" y1="26.9963" x2="10.5626" y2="33.5473" gradientUnits="userSpaceOnUse">
<stop stop-color="#FBF856"/>
<stop offset="1" stop-color="#EFFD85"/>
</linearGradient>
<linearGradient id="paint4_linear_982_9854" x1="15.7557" y1="26.9963" x2="10.5626" y2="33.5473" gradientUnits="userSpaceOnUse">
<stop stop-color="#FBF856"/>
<stop offset="1" stop-color="#EFFD85"/>
</linearGradient>
<clipPath id="clip0_982_9854">
<rect width="42" height="42.0003" fill="white"/>
</clipPath>
</defs>
</svg>
