<svg width="14" height="14" viewBox="0 0 14 14" fill="none" xmlns="http://www.w3.org/2000/svg">
<path d="M4 8H8C8.18889 8 8.34722 7.93611 8.475 7.80833C8.60278 7.68056 8.66667 7.52222 8.66667 7.33333V6L10 7.33333V3.33333L8.66667 4.66667V3.33333C8.66667 3.14444 8.60278 2.98611 8.475 2.85833C8.34722 2.73056 8.18889 2.66667 8 2.66667H4C3.81111 2.66667 3.65278 2.73056 3.525 2.85833C3.39722 2.98611 3.33333 3.14444 3.33333 3.33333V7.33333C3.33333 7.52222 3.39722 7.68056 3.525 7.80833C3.65278 7.93611 3.81111 8 4 8ZM0 13.3333V1.33333C0 0.966667 0.130556 0.652778 0.391667 0.391667C0.652778 0.130556 0.966667 0 1.33333 0H12C12.3667 0 12.6806 0.130556 12.9417 0.391667C13.2028 0.652778 13.3333 0.966667 13.3333 1.33333V9.33333C13.3333 9.7 13.2028 10.0139 12.9417 10.275C12.6806 10.5361 12.3667 10.6667 12 10.6667H2.66667L0 13.3333ZM2.1 9.33333H12V1.33333H1.33333V10.0833L2.1 9.33333Z" fill="white" fill-opacity="0.74"/>
</svg>
