<svg width="26" height="32" viewBox="0 0 26 32" fill="none" xmlns="http://www.w3.org/2000/svg">
<path d="M11.2938 21.68L20.475 12.64L18.1594 10.36L11.2938 17.12L7.88125 13.76L5.56562 16.04L11.2938 21.68ZM13 32C9.23542 31.0667 6.1276 28.94 3.67656 25.62C1.22552 22.3 0 18.6133 0 14.56V4.8L13 0L26 4.8V14.56C26 18.6133 24.7745 22.3 22.3234 25.62C19.8724 28.94 16.7646 31.0667 13 32ZM13 28.64C15.8167 27.76 18.1458 26 19.9875 23.36C21.8292 20.72 22.75 17.7867 22.75 14.56V7L13 3.4L3.25 7V14.56C3.25 17.7867 4.17083 20.72 6.0125 23.36C7.85417 26 10.1833 27.76 13 28.64Z" fill="white"/>
</svg>
